# xmcd
#
# Track frame offsets:
#	150
#	19206
#	39655
#	59575
#	75594
#	95431
#	113554
#	130603
#	152780
#	176267
#	198612
#	223825
#	250335
#	265784
#	300123
#	325227
#
# Disc length: 4548 seconds
#
# Revision: 0
# Processed by: cddbd v1.5.2PL0 Copyright (c) Steve Scherf et al.
# Submitted via: audiograbber 1.83.01
#
DISCID=d311c210
DTITLE=Erotic Lounge Vol.4 - Bare Jewels CD1
DYEAR=2005
DGENRE=
TTITLE0=Lovers Rock
TTITLE1=I Love You
TTITLE2=Playtime Theme
TTITLE3=Sentimento
TTITLE4=What Kind Of Woman
TTITLE5=Funky Plüsch
TTITLE6=Pussycat
TTITLE7=You Have To Come With Me
TTITLE8=Sink
TTITLE9=Wandance Paris
TTITLE10=Superyou
TTITLE11=Universal Love
TTITLE12=Why Go?
TTITLE13=Love And Imitation
TTITLE14=Take It Slow
TTITLE15=Sasha (Sex Secret)
EXTD=
EXTT0=
EXTT1=
EXTT2=
EXTT3=
EXTT4=
EXTT5=
EXTT6=
EXTT7=
EXTT8=
EXTT9=
EXTT10=
EXTT11=
EXTT12=
EXTT13=
EXTT14=
EXTT15=
PLAYORDER=
